<svg xmlns="http://www.w3.org/2000/svg" xmlns:xlink="http://www.w3.org/1999/xlink" width="60" height="60" viewBox="0 0 60 60"><defs><linearGradient id="a" x1="0.047" y1="0.5" x2="1" y2="0.5" gradientUnits="objectBoundingBox"><stop offset="0" stop-color="#4b50fc"/><stop offset="1" stop-color="#030780"/></linearGradient><linearGradient id="b" x1="0.054" y1="0.5" x2="1.046" y2="0.5" gradientUnits="objectBoundingBox"><stop offset="0" stop-color="#4d53fc"/><stop offset="1" stop-color="#030780"/></linearGradient><linearGradient id="c" x1="0.082" y1="0.5" x2="1" y2="0.5" gradientUnits="objectBoundingBox"><stop offset="0" stop-color="#454bf8"/><stop offset="1" stop-color="#030780"/></linearGradient><filter id="d" x="0" y="0" width="60" height="60" filterUnits="userSpaceOnUse"><feOffset dy="3" input="SourceAlpha"/><feGaussianBlur stdDeviation="3" result="e"/><feFlood flood-opacity="0.161"/><feComposite operator="in" in2="e"/><feComposite in="SourceGraphic"/></filter></defs><g transform="translate(-308 -9)"><g transform="translate(321 20)"><g stroke="#fff" stroke-width="0.5" fill="url(#a)"><rect width="34" height="10" rx="5" stroke="none"/><rect x="0.25" y="0.25" width="33.5" height="9.5" rx="4.75" fill="none"/></g><g transform="translate(8 12)" stroke="#fff" stroke-width="0.5" fill="url(#b)"><rect width="26" height="10" rx="5" stroke="none"/><rect x="0.25" y="0.25" width="25.5" height="9.5" rx="4.75" fill="none"/></g><g transform="translate(17 24)" stroke="#fff" stroke-width="0.5" fill="url(#c)"><rect width="17" height="10" rx="5" stroke="none"/><rect x="0.25" y="0.25" width="16.5" height="9.5" rx="4.75" fill="none"/></g></g><g transform="matrix(1, 0, 0, 1, 308, 9)" filter="url(#d)"><g transform="translate(9 6)" fill="rgba(255,255,255,0.64)" stroke="rgba(112,112,112,0.71)" stroke-width="0.5" opacity="0.44"><rect width="42" height="42" rx="9" stroke="none"/><rect x="0.25" y="0.25" width="41.5" height="41.5" rx="8.75" fill="none"/></g></g></g></svg>