<svg id="tick" xmlns="http://www.w3.org/2000/svg" viewBox="0 0 504 360"><defs><style>.cls-1{fill:#05c400;}.cls-2{font-size:60px;font-family:RobotoCondensed-Bold, Roboto Condensed;font-weight:700;}.cls-2,.cls-3{fill:#fff;}.cls-3{stroke:#000;stroke-miterlimit:10;stroke-width:23px;}.cls-4{fill:red;}</style></defs><path class="cls-1" d="M216,288,360,432A1235.66,1235.66,0,0,1,720,72,897.28,897.28,0,0,0,360,324l-90-90Z" transform="translate(-216 -72)"/><text class="cls-2" transform="matrix(0.89, 0.92, -0.72, 0.7, 18.06, 207)">504</text><path class="cls-3" d="M322.36,203.2h41.19a29.36,29.36,0,0,1,29.36,29.36v42.55a0,0,0,0,1,0,0H322.36a0,0,0,0,1,0,0V203.2A0,0,0,0,1,322.36,203.2Z" transform="translate(-279.61 254.61) rotate(-45.5)"/><rect class="cls-3" x="320.48" y="105.85" width="70.55" height="71.91" rx="35.28" transform="translate(-212.07 221.09) rotate(-45)"/><polygon class="cls-4" points="75.02 167.28 142.7 233.79 208.31 167.01 175.64 167.33 142.38 201.26 107.51 167.01 75.02 167.28"/></svg>